{"accessors":[{"bufferView":0,"byteOffset":0,"componentType":5126,"count":2646,"max":[5.567044734954834,5.564184665679932,5.569906711578369],"min":[-5.555606842041016,-5.564184665679932,-5.569906711578369],"type":"VEC3"},{"bufferView":1,"byteOffset":0,"componentType":5121,"count":2500,"normalized":true,"type":"VEC4"},{"bufferView":2,"byteOffset":0,"componentType":5125,"count":14406,"type":"SCALAR"}],"asset":{"generator":"VTK","version":"2.0"},"bufferViews":[{"buffer":0,"byteLength":31752,"byteOffset":0},{"buffer":1,"byteLength":10000,"byteOffset":0},{"buffer":2,"byteLength":57624,"byteOffset":0}],"buffers":[{"byteLength":31752,"uri":"data:application/octet-stream;base64,"},{"byteLength":10000,"uri":"data:application/octet-stream;base64,"},{"byteLength":57624,"uri":"data:application/octet-stream;base64,"}],"cameras":[{"perspective":{"aspectRatio":1.0,"yfov":0.5235987755982988,"zfar":60.190966071687754,"znear":19.08360371531146},"type":"perspective"}],"materials":[{"pbrMetallicRoughness":{"baseColorFactor":[0.0,0.0,0.0,1.0],"metallicFactor":0.0,"roughnessFactor":1.0}}],"meshes":[{"name":"mesh0","primitives":[{"attributes":{"COLOR_0":1,"POSITION":0},"indices":2,"material":0,"mode":4}]}],"nodes":[{"mesh":0,"name":"mesh0"},{"camera":0,"matrix":[-0.4142467200795901,0.9044076014985161,-0.10220834239436222,-0.0,-0.3562536152831672,-0.05778067556700121,0.9326010696587765,-0.0,0.837545829492915,0.42273902573895694,0.34613393306103746,-0.0,31.198140167193863,15.74391907040718,12.890942869797412,1.0],"name":"Camera Node"},{"children":[0,1],"name":"Renderer Node"}],"scene":0,"scenes":[{"name":"Layer 0","nodes":[2]}]}