{"accessors":[{"bufferView":0,"byteOffset":0,"componentType":5126,"count":2646,"max":[5.222745418548584,5.220061779022217,5.569906711578369],"min":[-5.212014675140381,-5.220061779022217,-5.569906711578369],"type":"VEC3"},{"bufferView":1,"byteOffset":0,"componentType":5121,"count":2500,"normalized":true,"type":"VEC4"},{"bufferView":2,"byteOffset":0,"componentType":5125,"count":14406,"type":"SCALAR"}],"asset":{"generator":"VTK","version":"2.0"},"bufferViews":[{"buffer":0,"byteLength":31752,"byteOffset":0},{"buffer":1,"byteLength":10000,"byteOffset":0},{"buffer":2,"byteLength":57624,"byteOffset":0}],"buffers":[{"byteLength":31752,"uri":"data:application/octet-stream;base64,"},{"byteLength":10000,"uri":"data:application/octet-stream;base64,"},{"byteLength":57624,"uri":"data:application/octet-stream;base64,"}],"cameras":[{"perspective":{"aspectRatio":1.8604651162790697,"yfov":0.5235987755982988,"zfar":60.93668729078598,"znear":18.491194443453956},"type":"perspective"}],"materials":[{"pbrMetallicRoughness":{"baseColorFactor":[0.0,0.0,0.0,1.0],"metallicFactor":1.0,"roughnessFactor":0.0}}],"meshes":[{"name":"mesh0","primitives":[{"attributes":{"COLOR_0":1,"POSITION":0},"indices":2,"material":0,"mode":4}]}],"nodes":[{"mesh":0,"name":"mesh0"},{"camera":0,"matrix":[0.03672301284873674,-0.5697223140115547,-0.8210163854909539,0.0,0.9339196742760423,0.31190664180468103,-0.17466622111403515,0.0,0.35559170733784295,-0.7603490854307944,0.543529029544064,-0.0,13.248894337346968,-28.317410358211824,20.242458189424354,1.0],"name":"Camera Node"},{"children":[0,1],"name":"Renderer Node"}],"scene":0,"scenes":[{"name":"Layer 0","nodes":[2]}]}