{"accessors":[{"bufferView":0,"byteOffset":0,"componentType":5126,"count":2647,"max":[5.659005165100098,5.656097412109375,6.276987552642822],"min":[-5.647377967834473,-5.656097412109375,-5.82917594909668],"type":"VEC3"},{"bufferView":1,"byteOffset":0,"componentType":5121,"count":5000,"normalized":true,"type":"VEC4"},{"bufferView":2,"byteOffset":0,"componentType":5125,"count":14262,"type":"SCALAR"},{"bufferView":3,"byteOffset":0,"componentType":5126,"count":60,"max":[0.5753633392998492,0.49340969681213126,0.5179027160307939],"min":[-0.208567614023353,-0.01860094586088219,-0.3208609116425307],"type":"VEC3"},{"bufferView":4,"byteOffset":0,"componentType":5121,"count":60,"normalized":true,"type":"VEC4"},{"bufferView":5,"byteOffset":0,"componentType":5125,"count":180,"type":"SCALAR"},{"bufferView":6,"byteOffset":0,"componentType":5126,"count":1313,"max":[-0.05536448583006859,0.8409530520439148,-0.35481393337249756],"min":[-0.45056697726249695,0.4430002272129059,-0.4048139154911041],"type":"VEC3"},{"bufferView":7,"byteOffset":0,"componentType":5126,"count":1313,"normalized":false,"type":"VEC2"},{"bufferView":8,"byteOffset":0,"componentType":5125,"count":7584,"type":"SCALAR"},{"bufferView":10,"byteOffset":0,"componentType":5126,"count":1313,"max":[0.45296573638916016,-0.4419766366481781,0.4548139274120331],"min":[0.05296573415398598,-0.8419766426086426,0.4048139154911041],"type":"VEC3"},{"bufferView":11,"byteOffset":0,"componentType":5126,"count":1313,"normalized":false,"type":"VEC2"},{"bufferView":12,"byteOffset":0,"componentType":5125,"count":7428,"type":"SCALAR"},{"bufferView":14,"byteOffset":0,"componentType":5126,"count":60,"max":[0.5753633392998492,0.49340969681213126,0.5179027160307939],"min":[-0.208567614023353,-0.01860094586088219,-0.3208609116425307],"type":"VEC3"},{"bufferView":15,"byteOffset":0,"componentType":5121,"count":60,"normalized":true,"type":"VEC4"},{"bufferView":16,"byteOffset":0,"componentType":5125,"count":180,"type":"SCALAR"},{"bufferView":17,"byteOffset":0,"componentType":5126,"count":1313,"max":[0.20226673781871796,0.6273454427719116,0.7262918949127197],"min":[-0.19773326814174652,0.22734543681144714,0.6762918829917908],"type":"VEC3"},{"bufferView":18,"byteOffset":0,"componentType":5126,"count":1313,"normalized":false,"type":"VEC2"},{"bufferView":19,"byteOffset":0,"componentType":5125,"count":7584,"type":"SCALAR"},{"bufferView":21,"byteOffset":0,"componentType":5126,"count":1313,"max":[0.19773326814174652,-0.22734543681144714,-0.6262919306755066],"min":[-0.20226673781871796,-0.6273454427719116,-0.6762918829917908],"type":"VEC3"},{"bufferView":22,"byteOffset":0,"componentType":5126,"count":1313,"normalized":false,"type":"VEC2"},{"bufferView":23,"byteOffset":0,"componentType":5125,"count":7392,"type":"SCALAR"},{"bufferView":25,"byteOffset":0,"componentType":5126,"count":60,"max":[0.5753633392998492,0.49340969681213126,0.5179027160307939],"min":[-0.208567614023353,-0.01860094586088219,-0.3208609116425307],"type":"VEC3"},{"bufferView":26,"byteOffset":0,"componentType":5121,"count":60,"normalized":true,"type":"VEC4"},{"bufferView":27,"byteOffset":0,"componentType":5125,"count":180,"type":"SCALAR"},{"bufferView":28,"byteOffset":0,"componentType":5126,"count":1313,"max":[0.9589487314224243,0.4127013385295868,-0.08694867789745331],"min":[0.5589487552642822,0.01270134188234806,-0.13694867491722107],"type":"VEC3"},{"bufferView":29,"byteOffset":0,"componentType":5126,"count":1313,"normalized":false,"type":"VEC2"},{"bufferView":30,"byteOffset":0,"componentType":5125,"count":7584,"type":"SCALAR"},{"bufferView":32,"byteOffset":0,"componentType":5126,"count":1313,"max":[-0.5589487552642822,-0.01270134188234806,0.18694867193698883],"min":[-0.9589487314224243,-0.4127013385295868,0.13694867491722107],"type":"VEC3"},{"bufferView":33,"byteOffset":0,"componentType":5126,"count":1313,"normalized":false,"type":"VEC2"},{"bufferView":34,"byteOffset":0,"componentType":5125,"count":7464,"type":"SCALAR"}],"asset":{"generator":"VTK","version":"2.0"},"bufferViews":[{"buffer":0,"byteLength":31764,"byteOffset":0},{"buffer":1,"byteLength":20000,"byteOffset":0},{"buffer":2,"byteLength":57048,"byteOffset":0},{"buffer":3,"byteLength":720,"byteOffset":0},{"buffer":4,"byteLength":240,"byteOffset":0},{"buffer":5,"byteLength":720,"byteOffset":0},{"buffer":6,"byteLength":15756,"byteOffset":0},{"buffer":7,"byteLength":10504,"byteOffset":0},{"buffer":8,"byteLength":30336,"byteOffset":0},{"buffer":9,"byteLength":3113,"byteOffset":0},{"buffer":10,"byteLength":15756,"byteOffset":0},{"buffer":11,"byteLength":10504,"byteOffset":0},{"buffer":12,"byteLength":29712,"byteOffset":0},{"buffer":13,"byteLength":394,"byteOffset":0},{"buffer":14,"byteLength":720,"byteOffset":0},{"buffer":15,"byteLength":240,"byteOffset":0},{"buffer":16,"byteLength":720,"byteOffset":0},{"buffer":17,"byteLength":15756,"byteOffset":0},{"buffer":18,"byteLength":10504,"byteOffset":0},{"buffer":19,"byteLength":30336,"byteOffset":0},{"buffer":20,"byteLength":2045,"byteOffset":0},{"buffer":21,"byteLength":15756,"byteOffset":0},{"buffer":22,"byteLength":10504,"byteOffset":0},{"buffer":23,"byteLength":29568,"byteOffset":0},{"buffer":24,"byteLength":378,"byteOffset":0},{"buffer":25,"byteLength":720,"byteOffset":0},{"buffer":26,"byteLength":240,"byteOffset":0},{"buffer":27,"byteLength":720,"byteOffset":0},{"buffer":28,"byteLength":15756,"byteOffset":0},{"buffer":29,"byteLength":10504,"byteOffset":0},{"buffer":30,"byteLength":30336,"byteOffset":0},{"buffer":31,"byteLength":1770,"byteOffset":0},{"buffer":32,"byteLength":15756,"byteOffset":0},{"buffer":33,"byteLength":10504,"byteOffset":0},{"buffer":34,"byteLength":29856,"byteOffset":0},{"buffer":35,"byteLength":379,"byteOffset":0}],"buffers":[{"byteLength":31764,"uri":"data:application/octet-stream;base64,"},{"byteLength":20000,"uri":"data:application/octet-stream;base64,"},{"byteLength":57048,"uri":"data:application/octet-stream;base64,"},{"byteLength":720,"uri":"data:application/octet-stream;base64,"},{"byteLength":240,"uri":"data:application/octet-stream;base64,"},{"byteLength":720,"uri":"data:application/octet-stream;base64,"},{"byteLength":15756,"uri":"data:application/octet-stream;base64,"},{"byteLength":10504,"uri":"data:application/octet-stream;base64,"},{"byteLength":30336,"uri":"data:application/octet-stream;base64,"},{"byteLength":3113,"uri":"data:application/octet-stream;base64,"},{"byteLength":15756,"uri":"data:application/octet-stream;base64,"},{"byteLength":10504,"uri":"data:application/octet-stream;base64,"},{"byteLength":29712,"uri":"data:application/octet-stream;base64,"},{"byteLength":394,"uri":"data:application/octet-stream;base64,"},{"byteLength":720,"uri":"data:application/octet-stream;base64,"},{"byteLength":240,"uri":"data:application/octet-stream;base64,"},{"byteLength":720,"uri":"data:application/octet-stream;base64,"},{"byteLength":15756,"uri":"data:application/octet-stream;base64,"},{"byteLength":10504,"uri":"data:application/octet-stream;base64,"},{"byteLength":30336,"uri":"data:application/octet-stream;base64,"},{"byteLength":2045,"uri":"data:application/octet-stream;base64,"},{"byteLength":15756,"uri":"data:application/octet-stream;base64,"},{"byteLength":10504,"uri":"data:application/octet-stream;base64,"},{"byteLength":29568,"uri":"data:application/octet-stream;base64,"},{"byteLength":378,"uri":"data:application/octet-stream;base64,"},{"byteLength":720,"uri":"data:application/octet-stream;base64,"},{"byteLength":240,"uri":"data:application/octet-stream;base64,"},{"byteLength":720,"uri":"data:application/octet-stream;base64,"},{"byteLength":15756,"uri":"data:application/octet-stream;base64,"},{"byteLength":10504,"uri":"data:application/octet-stream;base64,"},{"byteLength":30336,"uri":"data:application/octet-stream;base64,"},{"byteLength":1770,"uri":"data:application/octet-stream;base64,"},{"byteLength":15756,"uri":"data:application/octet-stream;base64,"},{"byteLength":10504,"uri":"data:application/octet-stream;base64,"},{"byteLength":29856,"uri":"data:application/octet-stream;base64,"},{"byteLength":379,"uri":"data:application/octet-stream;base64,"}],"cameras":[{"perspective":{"aspectRatio":1.0,"yfov":0.5235987755982988,"zfar":61.07116543955865,"znear":21.09352026431005},"type":"perspective"},{"perspective":{"aspectRatio":1.0,"yfov":0.5235987755982988,"zfar":1000.01,"znear":0.01},"type":"perspective"}],"images":[{"bufferView":9,"mimeType":"image/png"},{"bufferView":13,"mimeType":"image/png"},{"bufferView":20,"mimeType":"image/png"},{"bufferView":24,"mimeType":"image/png"},{"bufferView":31,"mimeType":"image/png"},{"bufferView":35,"mimeType":"image/png"}],"materials":[{"pbrMetallicRoughness":{"baseColorFactor":[0.0,0.0,0.0,1.0],"metallicFactor":0.0,"roughnessFactor":1.0}},{"pbrMetallicRoughness":{"baseColorFactor":[1.0,1.0,1.0,1.0],"metallicFactor":0.0,"roughnessFactor":1.0}},{"pbrMetallicRoughness":{"baseColorFactor":[1.0,1.0,1.0,1.0],"baseColorTexture":{"index":0,"texCoord":0},"metallicFactor":0.0,"roughnessFactor":1.0}},{"pbrMetallicRoughness":{"baseColorFactor":[1.0,1.0,1.0,1.0],"baseColorTexture":{"index":1,"texCoord":0},"metallicFactor":0.0,"roughnessFactor":1.0}},{"pbrMetallicRoughness":{"baseColorFactor":[1.0,1.0,1.0,1.0],"metallicFactor":0.0,"roughnessFactor":1.0}},{"pbrMetallicRoughness":{"baseColorFactor":[1.0,1.0,1.0,1.0],"baseColorTexture":{"index":2,"texCoord":0},"metallicFactor":0.0,"roughnessFactor":1.0}},{"pbrMetallicRoughness":{"baseColorFactor":[1.0,1.0,1.0,1.0],"baseColorTexture":{"index":3,"texCoord":0},"metallicFactor":0.0,"roughnessFactor":1.0}},{"pbrMetallicRoughness":{"baseColorFactor":[1.0,1.0,1.0,1.0],"metallicFactor":0.0,"roughnessFactor":1.0}},{"pbrMetallicRoughness":{"baseColorFactor":[1.0,1.0,1.0,1.0],"baseColorTexture":{"index":4,"texCoord":0},"metallicFactor":0.0,"roughnessFactor":1.0}},{"pbrMetallicRoughness":{"baseColorFactor":[1.0,1.0,1.0,1.0],"baseColorTexture":{"index":5,"texCoord":0},"metallicFactor":0.0,"roughnessFactor":1.0}}],"meshes":[{"name":"mesh0","primitives":[{"attributes":{"COLOR_0":1,"POSITION":0},"indices":2,"material":0,"mode":4}]},{"name":"mesh1","primitives":[{"attributes":{"COLOR_0":4,"POSITION":3},"indices":5,"material":1,"mode":4}]},{"name":"mesh2","primitives":[{"attributes":{"POSITION":6,"TEXCOORD_0":7},"indices":8,"material":2,"mode":4}]},{"name":"mesh3","primitives":[{"attributes":{"POSITION":9,"TEXCOORD_0":10},"indices":11,"material":3,"mode":4}]},{"name":"mesh4","primitives":[{"attributes":{"COLOR_0":13,"POSITION":12},"indices":14,"material":4,"mode":4}]},{"name":"mesh5","primitives":[{"attributes":{"POSITION":15,"TEXCOORD_0":16},"indices":17,"material":5,"mode":4}]},{"name":"mesh6","primitives":[{"attributes":{"POSITION":18,"TEXCOORD_0":19},"indices":20,"material":6,"mode":4}]},{"name":"mesh7","primitives":[{"attributes":{"COLOR_0":22,"POSITION":21},"indices":23,"material":7,"mode":4}]},{"name":"mesh8","primitives":[{"attributes":{"POSITION":24,"TEXCOORD_0":25},"indices":26,"material":8,"mode":4}]},{"name":"mesh9","primitives":[{"attributes":{"POSITION":27,"TEXCOORD_0":28},"indices":29,"material":9,"mode":4}]}],"nodes":[{"mesh":0,"name":"mesh0"},{"camera":0,"matrix":[-0.3162071691036126,0.00283341844181964,0.9486859321964318,-0.0,0.8024708133990964,0.5341817911513946,0.265876677512113,-0.0,-0.506017410619508,0.8453648831967302,-0.17118584756838678,-0.0,-19.60277011031101,32.758572588382684,-6.409684172377514,1.0],"name":"Camera Node"},{"children":[0,1],"name":"Renderer Node"},{"mesh":1,"name":"mesh1"},{"mesh":2,"name":"mesh2"},{"mesh":3,"name":"mesh3"},{"mesh":4,"name":"mesh4"},{"mesh":5,"name":"mesh5"},{"mesh":6,"name":"mesh6"},{"mesh":7,"name":"mesh7"},{"mesh":8,"name":"mesh8"},{"mesh":9,"name":"mesh9"},{"camera":1,"matrix":[1.0,-0.0,0.0,-0.0,-0.0,1.0,-0.0,0.0,0.0,-0.0,1.0,-0.0,-0.0,0.0,4.0,1.0],"name":"Camera Node"},{"children":[3,4,5,6,7,8,9,10,11,12],"name":"Renderer Node"}],"samplers":[{"magFilter":9728,"minFilter":9728,"wrapS":10497,"wrapT":10497},{"magFilter":9728,"minFilter":9728,"wrapS":10497,"wrapT":10497},{"magFilter":9728,"minFilter":9728,"wrapS":10497,"wrapT":10497},{"magFilter":9728,"minFilter":9728,"wrapS":10497,"wrapT":10497},{"magFilter":9728,"minFilter":9728,"wrapS":10497,"wrapT":10497},{"magFilter":9728,"minFilter":9728,"wrapS":10497,"wrapT":10497}],"scene":0,"scenes":[{"name":"Layer 0","nodes":[2,13]}],"textures":[{"sampler":0,"source":0},{"sampler":1,"source":1},{"sampler":2,"source":2},{"sampler":3,"source":3},{"sampler":4,"source":4},{"sampler":5,"source":5}]}