{"accessors":[{"bufferView":0,"byteOffset":0,"componentType":5126,"count":2500,"max":[5.631071090698242,5.628177642822266,6.333057403564453],"min":[-5.619501113891602,-5.628177642822266,-5.8852458000183105],"type":"VEC3"},{"bufferView":1,"byteOffset":0,"componentType":5121,"count":2500,"normalized":true,"type":"VEC4"},{"bufferView":2,"byteOffset":0,"componentType":5125,"count":14406,"type":"SCALAR"}],"asset":{"generator":"VTK","version":"2.0"},"bufferViews":[{"buffer":0,"byteLength":30000,"byteOffset":0},{"buffer":1,"byteLength":10000,"byteOffset":0},{"buffer":2,"byteLength":57624,"byteOffset":0}],"buffers":[{"byteLength":30000,"uri":"data:application/octet-stream;base64,"},{"byteLength":10000,"uri":"data:application/octet-stream;base64,"},{"byteLength":57624,"uri":"data:application/octet-stream;base64,"}],"cameras":[{"perspective":{"aspectRatio":1.0,"yfov":0.5235987755982988,"zfar":56.185225774931425,"znear":27.45060668518574},"type":"perspective"}],"materials":[{"pbrMetallicRoughness":{"baseColorFactor":[0.0,0.0,0.0,1.0],"metallicFactor":0.0,"roughnessFactor":1.0}}],"meshes":[{"name":"mesh0","primitives":[{"attributes":{"COLOR_0":1,"POSITION":0},"indices":2,"material":0,"mode":4}]}],"nodes":[{"mesh":0,"name":"mesh0"},{"camera":0,"matrix":[-0.00444957063803587,0.9999819754774737,0.004031133997541601,-0.0,-0.08396251188589712,-0.004390536990110987,0.9964592414056628,0.0,0.9964589795465479,0.004095351646375903,0.08398053450618669,-0.0,39.99269270135075,0.16434227050798567,3.5939587083249056,1.0],"name":"Camera Node"},{"children":[0,1],"name":"Renderer Node"}],"scene":0,"scenes":[{"name":"Layer 0","nodes":[2]}]}