{"accessors":[{"bufferView":0,"byteOffset":0,"componentType":5126,"count":2647,"max":[5.659005165100098,5.656097412109375,6.276987552642822],"min":[-5.647377967834473,-5.656097412109375,-5.82917594909668],"type":"VEC3"},{"bufferView":1,"byteOffset":0,"componentType":5121,"count":5000,"normalized":true,"type":"VEC4"},{"bufferView":2,"byteOffset":0,"componentType":5125,"count":14262,"type":"SCALAR"},{"bufferView":3,"byteOffset":0,"componentType":5126,"count":60,"max":[0.4815896212107884,0.5558225462534132,0.3396578368757324],"min":[-0.01917252993693004,-0.20789695624435908,-0.4598132860119726],"type":"VEC3"},{"bufferView":4,"byteOffset":0,"componentType":5121,"count":60,"normalized":true,"type":"VEC4"},{"bufferView":5,"byteOffset":0,"componentType":5125,"count":180,"type":"SCALAR"},{"bufferView":6,"byteOffset":0,"componentType":5126,"count":1313,"max":[0.8230974078178406,-0.053038790822029114,0.480398565530777],"min":[0.4278948903083801,-0.4509916305541992,0.430398553609848],"type":"VEC3"},{"bufferView":7,"byteOffset":0,"componentType":5126,"count":1313,"normalized":false,"type":"VEC2"},{"bufferView":8,"byteOffset":0,"componentType":5125,"count":7584,"type":"SCALAR"},{"bufferView":10,"byteOffset":0,"componentType":5126,"count":1313,"max":[-0.4254961311817169,0.452015221118927,-0.38039854168891907],"min":[-0.8254961371421814,0.052015211433172226,-0.430398553609848],"type":"VEC3"},{"bufferView":11,"byteOffset":0,"componentType":5126,"count":1313,"normalized":false,"type":"VEC2"},{"bufferView":12,"byteOffset":0,"componentType":5125,"count":7428,"type":"SCALAR"},{"bufferView":14,"byteOffset":0,"componentType":5126,"count":60,"max":[0.4815896212107884,0.5558225462534132,0.3396578368757324],"min":[-0.01917252993693004,-0.20789695624435908,-0.4598132860119726],"type":"VEC3"},{"bufferView":15,"byteOffset":0,"componentType":5121,"count":60,"normalized":true,"type":"VEC4"},{"bufferView":16,"byteOffset":0,"componentType":5125,"count":180,"type":"SCALAR"},{"bufferView":17,"byteOffset":0,"componentType":5126,"count":1313,"max":[0.6928796172142029,0.40669962763786316,-0.5452688336372375],"min":[0.2928796112537384,0.006699628196656704,-0.5952687859535217],"type":"VEC3"},{"bufferView":18,"byteOffset":0,"componentType":5126,"count":1313,"normalized":false,"type":"VEC2"},{"bufferView":19,"byteOffset":0,"componentType":5125,"count":7584,"type":"SCALAR"},{"bufferView":21,"byteOffset":0,"componentType":5126,"count":1313,"max":[-0.2928796112537384,-0.006699628196656704,0.6452687978744507],"min":[-0.6928796172142029,-0.40669962763786316,0.5952687859535217],"type":"VEC3"},{"bufferView":22,"byteOffset":0,"componentType":5126,"count":1313,"normalized":false,"type":"VEC2"},{"bufferView":23,"byteOffset":0,"componentType":5125,"count":7464,"type":"SCALAR"},{"bufferView":25,"byteOffset":0,"componentType":5126,"count":60,"max":[0.4815896212107884,0.5558225462534132,0.3396578368757324],"min":[-0.01917252993693004,-0.20789695624435908,-0.4598132860119726],"type":"VEC3"},{"bufferView":26,"byteOffset":0,"componentType":5121,"count":60,"normalized":true,"type":"VEC4"},{"bufferView":27,"byteOffset":0,"componentType":5125,"count":180,"type":"SCALAR"},{"bufferView":28,"byteOffset":0,"componentType":5126,"count":1313,"max":[0.27631697058677673,0.9305912852287292,0.3668787181377411],"min":[-0.12368303537368774,0.5305912494659424,0.31687870621681213],"type":"VEC3"},{"bufferView":29,"byteOffset":0,"componentType":5126,"count":1313,"normalized":false,"type":"VEC2"},{"bufferView":30,"byteOffset":0,"componentType":5125,"count":7584,"type":"SCALAR"},{"bufferView":32,"byteOffset":0,"componentType":5126,"count":1313,"max":[0.12368303537368774,-0.5305912494659424,-0.26687872409820557],"min":[-0.27631697058677673,-0.9305912852287292,-0.31687870621681213],"type":"VEC3"},{"bufferView":33,"byteOffset":0,"componentType":5126,"count":1313,"normalized":false,"type":"VEC2"},{"bufferView":34,"byteOffset":0,"componentType":5125,"count":7464,"type":"SCALAR"}],"asset":{"generator":"VTK","version":"2.0"},"bufferViews":[{"buffer":0,"byteLength":31764,"byteOffset":0},{"buffer":1,"byteLength":20000,"byteOffset":0},{"buffer":2,"byteLength":57048,"byteOffset":0},{"buffer":3,"byteLength":720,"byteOffset":0},{"buffer":4,"byteLength":240,"byteOffset":0},{"buffer":5,"byteLength":720,"byteOffset":0},{"buffer":6,"byteLength":15756,"byteOffset":0},{"buffer":7,"byteLength":10504,"byteOffset":0},{"buffer":8,"byteLength":30336,"byteOffset":0},{"buffer":9,"byteLength":3113,"byteOffset":0},{"buffer":10,"byteLength":15756,"byteOffset":0},{"buffer":11,"byteLength":10504,"byteOffset":0},{"buffer":12,"byteLength":29712,"byteOffset":0},{"buffer":13,"byteLength":394,"byteOffset":0},{"buffer":14,"byteLength":720,"byteOffset":0},{"buffer":15,"byteLength":240,"byteOffset":0},{"buffer":16,"byteLength":720,"byteOffset":0},{"buffer":17,"byteLength":15756,"byteOffset":0},{"buffer":18,"byteLength":10504,"byteOffset":0},{"buffer":19,"byteLength":30336,"byteOffset":0},{"buffer":20,"byteLength":2045,"byteOffset":0},{"buffer":21,"byteLength":15756,"byteOffset":0},{"buffer":22,"byteLength":10504,"byteOffset":0},{"buffer":23,"byteLength":29856,"byteOffset":0},{"buffer":24,"byteLength":378,"byteOffset":0},{"buffer":25,"byteLength":720,"byteOffset":0},{"buffer":26,"byteLength":240,"byteOffset":0},{"buffer":27,"byteLength":720,"byteOffset":0},{"buffer":28,"byteLength":15756,"byteOffset":0},{"buffer":29,"byteLength":10504,"byteOffset":0},{"buffer":30,"byteLength":30336,"byteOffset":0},{"buffer":31,"byteLength":1770,"byteOffset":0},{"buffer":32,"byteLength":15756,"byteOffset":0},{"buffer":33,"byteLength":10504,"byteOffset":0},{"buffer":34,"byteLength":29856,"byteOffset":0},{"buffer":35,"byteLength":379,"byteOffset":0}],"buffers":[{"byteLength":31764,"uri":"data:application/octet-stream;base64,"},{"byteLength":20000,"uri":"data:application/octet-stream;base64,"},{"byteLength":57048,"uri":"data:application/octet-stream;base64,"},{"byteLength":720,"uri":"data:application/octet-stream;base64,"},{"byteLength":240,"uri":"data:application/octet-stream;base64,"},{"byteLength":720,"uri":"data:application/octet-stream;base64,"},{"byteLength":15756,"uri":"data:application/octet-stream;base64,"},{"byteLength":10504,"uri":"data:application/octet-stream;base64,"},{"byteLength":30336,"uri":"data:application/octet-stream;base64,"},{"byteLength":3113,"uri":"data:application/octet-stream;base64,"},{"byteLength":15756,"uri":"data:application/octet-stream;base64,"},{"byteLength":10504,"uri":"data:application/octet-stream;base64,"},{"byteLength":29712,"uri":"data:application/octet-stream;base64,"},{"byteLength":394,"uri":"data:application/octet-stream;base64,"},{"byteLength":720,"uri":"data:application/octet-stream;base64,"},{"byteLength":240,"uri":"data:application/octet-stream;base64,"},{"byteLength":720,"uri":"data:application/octet-stream;base64,"},{"byteLength":15756,"uri":"data:application/octet-stream;base64,"},{"byteLength":10504,"uri":"data:application/octet-stream;base64,"},{"byteLength":30336,"uri":"data:application/octet-stream;base64,"},{"byteLength":2045,"uri":"data:application/octet-stream;base64,"},{"byteLength":15756,"uri":"data:application/octet-stream;base64,"},{"byteLength":10504,"uri":"data:application/octet-stream;base64,"},{"byteLength":29856,"uri":"data:application/octet-stream;base64,"},{"byteLength":378,"uri":"data:application/octet-stream;base64,"},{"byteLength":720,"uri":"data:application/octet-stream;base64,"},{"byteLength":240,"uri":"data:application/octet-stream;base64,"},{"byteLength":720,"uri":"data:application/octet-stream;base64,"},{"byteLength":15756,"uri":"data:application/octet-stream;base64,"},{"byteLength":10504,"uri":"data:application/octet-stream;base64,"},{"byteLength":30336,"uri":"data:application/octet-stream;base64,"},{"byteLength":1770,"uri":"data:application/octet-stream;base64,"},{"byteLength":15756,"uri":"data:application/octet-stream;base64,"},{"byteLength":10504,"uri":"data:application/octet-stream;base64,"},{"byteLength":29856,"uri":"data:application/octet-stream;base64,"},{"byteLength":379,"uri":"data:application/octet-stream;base64,"}],"cameras":[{"perspective":{"aspectRatio":1.0,"yfov":0.5235987755982988,"zfar":63.499423345124214,"znear":19.164485041924337},"type":"perspective"},{"perspective":{"aspectRatio":1.0,"yfov":0.5235987755982988,"zfar":1000.01,"znear":0.01},"type":"perspective"}],"images":[{"bufferView":9,"mimeType":"image/png"},{"bufferView":13,"mimeType":"image/png"},{"bufferView":20,"mimeType":"image/png"},{"bufferView":24,"mimeType":"image/png"},{"bufferView":31,"mimeType":"image/png"},{"bufferView":35,"mimeType":"image/png"}],"materials":[{"pbrMetallicRoughness":{"baseColorFactor":[0.0,0.0,0.0,1.0],"metallicFactor":0.0,"roughnessFactor":1.0}},{"pbrMetallicRoughness":{"baseColorFactor":[1.0,1.0,1.0,1.0],"metallicFactor":0.0,"roughnessFactor":1.0}},{"pbrMetallicRoughness":{"baseColorFactor":[1.0,1.0,1.0,1.0],"baseColorTexture":{"index":0,"texCoord":0},"metallicFactor":0.0,"roughnessFactor":1.0}},{"pbrMetallicRoughness":{"baseColorFactor":[1.0,1.0,1.0,1.0],"baseColorTexture":{"index":1,"texCoord":0},"metallicFactor":0.0,"roughnessFactor":1.0}},{"pbrMetallicRoughness":{"baseColorFactor":[1.0,1.0,1.0,1.0],"metallicFactor":0.0,"roughnessFactor":1.0}},{"pbrMetallicRoughness":{"baseColorFactor":[1.0,1.0,1.0,1.0],"baseColorTexture":{"index":2,"texCoord":0},"metallicFactor":0.0,"roughnessFactor":1.0}},{"pbrMetallicRoughness":{"baseColorFactor":[1.0,1.0,1.0,1.0],"baseColorTexture":{"index":3,"texCoord":0},"metallicFactor":0.0,"roughnessFactor":1.0}},{"pbrMetallicRoughness":{"baseColorFactor":[1.0,1.0,1.0,1.0],"metallicFactor":0.0,"roughnessFactor":1.0}},{"pbrMetallicRoughness":{"baseColorFactor":[1.0,1.0,1.0,1.0],"baseColorTexture":{"index":4,"texCoord":0},"metallicFactor":0.0,"roughnessFactor":1.0}},{"pbrMetallicRoughness":{"baseColorFactor":[1.0,1.0,1.0,1.0],"baseColorTexture":{"index":5,"texCoord":0},"metallicFactor":0.0,"roughnessFactor":1.0}}],"meshes":[{"name":"mesh0","primitives":[{"attributes":{"COLOR_0":1,"POSITION":0},"indices":2,"material":0,"mode":4}]},{"name":"mesh1","primitives":[{"attributes":{"COLOR_0":4,"POSITION":3},"indices":5,"material":1,"mode":4}]},{"name":"mesh2","primitives":[{"attributes":{"POSITION":6,"TEXCOORD_0":7},"indices":8,"material":2,"mode":4}]},{"name":"mesh3","primitives":[{"attributes":{"POSITION":9,"TEXCOORD_0":10},"indices":11,"material":3,"mode":4}]},{"name":"mesh4","primitives":[{"attributes":{"COLOR_0":13,"POSITION":12},"indices":14,"material":4,"mode":4}]},{"name":"mesh5","primitives":[{"attributes":{"POSITION":15,"TEXCOORD_0":16},"indices":17,"material":5,"mode":4}]},{"name":"mesh6","primitives":[{"attributes":{"POSITION":18,"TEXCOORD_0":19},"indices":20,"material":6,"mode":4}]},{"name":"mesh7","primitives":[{"attributes":{"COLOR_0":22,"POSITION":21},"indices":23,"material":7,"mode":4}]},{"name":"mesh8","primitives":[{"attributes":{"POSITION":24,"TEXCOORD_0":25},"indices":26,"material":8,"mode":4}]},{"name":"mesh9","primitives":[{"attributes":{"POSITION":27,"TEXCOORD_0":28},"indices":29,"material":9,"mode":4}]}],"nodes":[{"mesh":0,"name":"mesh0"},{"camera":0,"matrix":[0.7818701696698962,0.6160995056334752,0.09539621029451303,-0.0,-0.31501901501488067,0.2583745349598211,0.9132390814367015,0.0,0.5379981951265468,-0.7440860157552242,0.3960984009032282,-0.0,20.853678559413748,-28.83393460459767,15.573039029384343,1.0],"name":"Camera Node"},{"children":[0,1],"name":"Renderer Node"},{"mesh":1,"name":"mesh1"},{"mesh":2,"name":"mesh2"},{"mesh":3,"name":"mesh3"},{"mesh":4,"name":"mesh4"},{"mesh":5,"name":"mesh5"},{"mesh":6,"name":"mesh6"},{"mesh":7,"name":"mesh7"},{"mesh":8,"name":"mesh8"},{"mesh":9,"name":"mesh9"},{"camera":1,"matrix":[1.0,-0.0,0.0,-0.0,-0.0,1.0,-0.0,0.0,0.0,-0.0,1.0,-0.0,-0.0,0.0,4.0,1.0],"name":"Camera Node"},{"children":[3,4,5,6,7,8,9,10,11,12],"name":"Renderer Node"}],"samplers":[{"magFilter":9728,"minFilter":9728,"wrapS":10497,"wrapT":10497},{"magFilter":9728,"minFilter":9728,"wrapS":10497,"wrapT":10497},{"magFilter":9728,"minFilter":9728,"wrapS":10497,"wrapT":10497},{"magFilter":9728,"minFilter":9728,"wrapS":10497,"wrapT":10497},{"magFilter":9728,"minFilter":9728,"wrapS":10497,"wrapT":10497},{"magFilter":9728,"minFilter":9728,"wrapS":10497,"wrapT":10497}],"scene":0,"scenes":[{"name":"Layer 0","nodes":[2,13]}],"textures":[{"sampler":0,"source":0},{"sampler":1,"source":1},{"sampler":2,"source":2},{"sampler":3,"source":3},{"sampler":4,"source":4},{"sampler":5,"source":5}]}