{"accessors":[{"bufferView":0,"byteOffset":0,"componentType":5126,"count":2500,"max":[5.245803356170654,5.24310827255249,6.214706897735596],"min":[-5.235025405883789,-5.24310827255249,-6.214706897735596],"type":"VEC3"},{"bufferView":1,"byteOffset":0,"componentType":5121,"count":2500,"normalized":true,"type":"VEC4"},{"bufferView":2,"byteOffset":0,"componentType":5125,"count":14406,"type":"SCALAR"}],"asset":{"generator":"VTK","version":"2.0"},"bufferViews":[{"buffer":0,"byteLength":30000,"byteOffset":0},{"buffer":1,"byteLength":10000,"byteOffset":0},{"buffer":2,"byteLength":57624,"byteOffset":0}],"buffers":[{"byteLength":30000,"uri":"data:application/octet-stream;base64,"},{"byteLength":10000,"uri":"data:application/octet-stream;base64,"},{"byteLength":57624,"uri":"data:application/octet-stream;base64,"}],"cameras":[{"perspective":{"aspectRatio":1.8604651162790697,"yfov":0.5235987755982988,"zfar":56.9211812976147,"znear":24.36306631482961},"type":"perspective"}],"materials":[{"pbrMetallicRoughness":{"baseColorFactor":[0.0,0.0,0.0,1.0],"metallicFactor":0.0,"roughnessFactor":1.0}}],"meshes":[{"name":"mesh0","primitives":[{"attributes":{"COLOR_0":1,"POSITION":0},"indices":2,"material":0,"mode":4}]}],"nodes":[{"mesh":0,"name":"mesh0"},{"camera":0,"matrix":[-0.9998968972701138,-0.007315862277617326,0.012356091159198092,-0.0,0.009054771957652101,-0.9890764436685207,0.1471251157512764,0.0,0.011144771616968849,0.14722182833794212,0.9890407106517096,-0.0,0.4374188052888875,5.7027317108684885,38.311124699704635,1.0],"name":"Camera Node"},{"children":[0,1],"name":"Renderer Node"}],"scene":0,"scenes":[{"name":"Layer 0","nodes":[2]}]}