{"accessors":[{"bufferView":0,"byteOffset":0,"componentType":5126,"count":2647,"max":[8.225886344909668,8.221659660339355,9.826666831970215],"min":[-8.208985328674316,-8.221659660339355,-9.826666831970215],"type":"VEC3"},{"bufferView":1,"byteOffset":0,"componentType":5121,"count":5000,"normalized":true,"type":"VEC4"},{"bufferView":2,"byteOffset":0,"componentType":5125,"count":14262,"type":"SCALAR"}],"asset":{"generator":"VTK","version":"2.0"},"bufferViews":[{"buffer":0,"byteLength":31764,"byteOffset":0},{"buffer":1,"byteLength":20000,"byteOffset":0},{"buffer":2,"byteLength":57048,"byteOffset":0}],"buffers":[{"byteLength":31764,"uri":"data:application/octet-stream;base64,"},{"byteLength":20000,"uri":"data:application/octet-stream;base64,"},{"byteLength":57048,"uri":"data:application/octet-stream;base64,"}],"cameras":[{"perspective":{"aspectRatio":1.0,"yfov":0.5235987755982988,"zfar":74.7403980552039,"znear":28.16162765034482},"type":"perspective"}],"materials":[{"pbrMetallicRoughness":{"baseColorFactor":[0.0,0.0,0.0,1.0],"metallicFactor":1.0,"roughnessFactor":0.0}}],"meshes":[{"name":"mesh0","primitives":[{"attributes":{"COLOR_0":1,"POSITION":0},"indices":2,"material":0,"mode":4}]}],"nodes":[{"mesh":0,"name":"mesh0"},{"camera":0,"matrix":[0.14585301851053004,-0.9889972656298484,0.024724594396065138,-0.0,0.0777762821817014,0.03637744200232995,0.9963069464996013,0.0,-0.9862442633148034,-0.14339138847939956,0.08222629013028977,-0.0,-48.05191977693764,-6.987421626470016,4.006863759488094,1.0],"name":"Camera Node"},{"children":[0,1],"name":"Renderer Node"}],"scene":0,"scenes":[{"name":"Layer 0","nodes":[2]}]}