{"accessors":[{"bufferView":0,"byteOffset":0,"componentType":5126,"count":2500,"max":[7.300994396209717,7.297243118286133,10.893888473510742],"min":[-7.285993576049805,-7.297243118286133,-4.635082721710205],"type":"VEC3"},{"bufferView":1,"byteOffset":0,"componentType":5121,"count":2500,"normalized":true,"type":"VEC4"},{"bufferView":2,"byteOffset":0,"componentType":5125,"count":14406,"type":"SCALAR"},{"bufferView":3,"byteOffset":0,"componentType":5126,"count":2500,"max":[7.300994396209717,7.297243118286133,10.893888473510742],"min":[-7.285993576049805,-7.297243118286133,-4.635082721710205],"type":"VEC3"},{"bufferView":4,"byteOffset":0,"componentType":5121,"count":2500,"normalized":true,"type":"VEC4"},{"bufferView":5,"byteOffset":0,"componentType":5125,"count":14406,"type":"SCALAR"},{"bufferView":6,"byteOffset":0,"componentType":5126,"count":2500,"max":[7.300994396209717,7.297243118286133,10.893888473510742],"min":[-7.285993576049805,-7.297243118286133,-4.635082721710205],"type":"VEC3"},{"bufferView":7,"byteOffset":0,"componentType":5121,"count":2500,"normalized":true,"type":"VEC4"},{"bufferView":8,"byteOffset":0,"componentType":5125,"count":14406,"type":"SCALAR"},{"bufferView":9,"byteOffset":0,"componentType":5126,"count":2500,"max":[7.300994396209717,7.297243118286133,10.893888473510742],"min":[-7.285993576049805,-7.297243118286133,-4.635082721710205],"type":"VEC3"},{"bufferView":10,"byteOffset":0,"componentType":5121,"count":2500,"normalized":true,"type":"VEC4"},{"bufferView":11,"byteOffset":0,"componentType":5125,"count":14406,"type":"SCALAR"}],"asset":{"generator":"VTK","version":"2.0"},"bufferViews":[{"buffer":0,"byteLength":30000,"byteOffset":0},{"buffer":1,"byteLength":10000,"byteOffset":0},{"buffer":2,"byteLength":57624,"byteOffset":0},{"buffer":3,"byteLength":30000,"byteOffset":0},{"buffer":4,"byteLength":10000,"byteOffset":0},{"buffer":5,"byteLength":57624,"byteOffset":0},{"buffer":6,"byteLength":30000,"byteOffset":0},{"buffer":7,"byteLength":10000,"byteOffset":0},{"buffer":8,"byteLength":57624,"byteOffset":0},{"buffer":9,"byteLength":30000,"byteOffset":0},{"buffer":10,"byteLength":10000,"byteOffset":0},{"buffer":11,"byteLength":57624,"byteOffset":0}],"buffers":[{"byteLength":30000,"uri":"data:application/octet-stream;base64,"},{"byteLength":10000,"uri":"data:application/octet-stream;base64,"},{"byteLength":57624,"uri":"data:application/octet-stream;base64,"},{"byteLength":30000,"uri":"data:application/octet-stream;base64,"},{"byteLength":10000,"uri":"data:application/octet-stream;base64,"},{"byteLength":57624,"uri":"data:application/octet-stream;base64,"},{"byteLength":30000,"uri":"data:application/octet-stream;base64,"},{"byteLength":10000,"uri":"data:application/octet-stream;base64,"},{"byteLength":57624,"uri":"data:application/octet-stream;base64,"},{"byteLength":30000,"uri":"data:application/octet-stream;base64,"},{"byteLength":10000,"uri":"data:application/octet-stream;base64,"},{"byteLength":57624,"uri":"data:application/octet-stream;base64,"}],"cameras":[{"perspective":{"aspectRatio":0.9301310043668122,"yfov":0.5235987755982988,"zfar":81.04383574455456,"znear":25.23660267905735},"type":"perspective"},{"perspective":{"aspectRatio":0.9301310043668122,"yfov":0.5235987755982988,"zfar":81.78039120108497,"znear":24.65147479143491},"type":"perspective"},{"perspective":{"aspectRatio":0.9301310043668122,"yfov":0.5235987755982988,"zfar":83.53432274788076,"znear":29.553868608692415},"type":"perspective"},{"perspective":{"aspectRatio":0.9301310043668122,"yfov":0.5235987755982988,"zfar":79.22783152162475,"znear":26.679256732403235},"type":"perspective"}],"materials":[{"pbrMetallicRoughness":{"baseColorFactor":[0.0,0.0,0.0,1.0],"metallicFactor":0.0,"roughnessFactor":1.0}},{"pbrMetallicRoughness":{"baseColorFactor":[0.0,0.0,0.0,1.0],"metallicFactor":0.0,"roughnessFactor":1.0}},{"pbrMetallicRoughness":{"baseColorFactor":[0.0,0.0,0.0,1.0],"metallicFactor":0.0,"roughnessFactor":1.0}},{"pbrMetallicRoughness":{"baseColorFactor":[0.0,0.0,0.0,1.0],"metallicFactor":0.0,"roughnessFactor":1.0}}],"meshes":[{"name":"mesh0","primitives":[{"attributes":{"COLOR_0":1,"POSITION":0},"indices":2,"material":0,"mode":4}]},{"name":"mesh1","primitives":[{"attributes":{"COLOR_0":4,"POSITION":3},"indices":5,"material":1,"mode":4}]},{"name":"mesh2","primitives":[{"attributes":{"COLOR_0":7,"POSITION":6},"indices":8,"material":2,"mode":4}]},{"name":"mesh3","primitives":[{"attributes":{"COLOR_0":10,"POSITION":9},"indices":11,"material":3,"mode":4}]}],"nodes":[{"mesh":0,"name":"mesh0"},{"camera":0,"matrix":[0.8276198454401894,-0.007401027009029226,-0.5612402482295513,0.0,-0.15025596834808896,0.9604977644283689,-0.2342374617858633,0.0,0.5408036015129106,0.2781892688931716,0.7938149628618423,-0.0,26.988180172446356,13.878856494919841,42.7328138806231,1.0],"name":"Camera Node"},{"children":[0,1],"name":"Renderer Node"},{"mesh":1,"name":"mesh1"},{"camera":1,"matrix":[0.8575686626596076,-0.029619051111136142,-0.5135160178957306,0.0,-0.17291116410334348,0.9236414974754988,-0.34203525179379535,0.0,0.48443546335155835,0.38211136590331135,0.7869645391597178,-0.0,24.175975001701232,19.063527624735308,42.391046393079826,1.0],"name":"Camera Node"},{"children":[3,4],"name":"Renderer Node"},{"mesh":2,"name":"mesh2"},{"camera":2,"matrix":[0.9228617172334146,0.01626368453025742,-0.38478792006830626,0.0,-0.1323437506773518,0.9516582921027831,-0.27718518490111393,0.0,0.36167856243029384,0.30672787228668025,0.8804014026799604,-0.0,19.319240615780295,16.377661268185413,50.13822488360876,1.0],"name":"Camera Node"},{"children":[6,7],"name":"Renderer Node"},{"mesh":3,"name":"mesh3"},{"camera":3,"matrix":[0.8430321370897846,-0.048313945069643656,0.5356888822307571,-0.0,0.11958632811606058,0.9878654009795617,-0.09910125970545416,0.0,-0.5244005396274382,0.14760661319635185,0.8385799674325367,-0.0,-26.15483095627716,7.364090679716377,44.96613897221655,1.0],"name":"Camera Node"},{"children":[9,10],"name":"Renderer Node"}],"scene":0,"scenes":[{"name":"Layer 0","nodes":[2,5,8,11]}]}