{"accessors":[{"bufferView":0,"byteOffset":0,"componentType":5126,"count":2647,"max":[5.915867805480957,5.91282844543457,5.918909072875977],"min":[-5.903713226318359,-5.91282844543457,-5.918909072875977],"type":"VEC3"},{"bufferView":1,"byteOffset":0,"componentType":5121,"count":5000,"normalized":true,"type":"VEC4"},{"bufferView":2,"byteOffset":0,"componentType":5125,"count":14262,"type":"SCALAR"}],"asset":{"generator":"VTK","version":"2.0"},"bufferViews":[{"buffer":0,"byteLength":31764,"byteOffset":0},{"buffer":1,"byteLength":20000,"byteOffset":0},{"buffer":2,"byteLength":57048,"byteOffset":0}],"buffers":[{"byteLength":31764,"uri":"data:application/octet-stream;base64,"},{"byteLength":20000,"uri":"data:application/octet-stream;base64,"},{"byteLength":57048,"uri":"data:application/octet-stream;base64,"}],"cameras":[{"perspective":{"aspectRatio":1.0,"yfov":0.5235987755982988,"zfar":54.99672512316005,"znear":27.401823473695686},"type":"perspective"}],"materials":[{"pbrMetallicRoughness":{"baseColorFactor":[0.0,0.0,0.0,1.0],"metallicFactor":1.0,"roughnessFactor":0.0}}],"meshes":[{"name":"mesh0","primitives":[{"attributes":{"COLOR_0":1,"POSITION":0},"indices":2,"material":0,"mode":4}]}],"nodes":[{"mesh":0,"name":"mesh0"},{"camera":0,"matrix":[0.0,1.0,0.0,-0.0,-2.220553229095131e-16,0.0,1.0,0.0,1.0,-0.0,2.220553229095131e-16,-0.0,39.582291965054914,-0.0,8.788109129298505e-15,1.0],"name":"Camera Node"},{"children":[0,1],"name":"Renderer Node"}],"scene":0,"scenes":[{"name":"Layer 0","nodes":[2]}]}