{"accessors":[{"bufferView":0,"byteOffset":0,"componentType":5126,"count":2647,"max":[8.184027671813965,8.17982292175293,9.713829040527344],"min":[-8.16721248626709,-8.17982292175293,-9.713829040527344],"type":"VEC3"},{"bufferView":1,"byteOffset":0,"componentType":5121,"count":5000,"normalized":true,"type":"VEC4"},{"bufferView":2,"byteOffset":0,"componentType":5125,"count":14262,"type":"SCALAR"}],"asset":{"generator":"VTK","version":"2.0"},"bufferViews":[{"buffer":0,"byteLength":31764,"byteOffset":0},{"buffer":1,"byteLength":20000,"byteOffset":0},{"buffer":2,"byteLength":57048,"byteOffset":0}],"buffers":[{"byteLength":31764,"uri":"data:application/octet-stream;base64,"},{"byteLength":20000,"uri":"data:application/octet-stream;base64,"},{"byteLength":57048,"uri":"data:application/octet-stream;base64,"}],"cameras":[{"perspective":{"aspectRatio":1.0,"yfov":0.5235987755982988,"zfar":77.90620965831079,"znear":25.642551050660472},"type":"perspective"}],"materials":[{"pbrMetallicRoughness":{"baseColorFactor":[0.0,0.0,0.0,1.0],"metallicFactor":0.0,"roughnessFactor":1.0}}],"meshes":[{"name":"mesh0","primitives":[{"attributes":{"COLOR_0":1,"POSITION":0},"indices":2,"material":0,"mode":4}]}],"nodes":[{"mesh":0,"name":"mesh0"},{"camera":0,"matrix":[-0.22760891975993156,0.9737199237182397,0.007980588942087934,-0.0,-0.1678083660510407,-0.04729598474653103,0.9846844378328197,0.0,0.9591843055059842,0.2227837516090468,0.17416333738764192,-0.0,46.74782742195346,10.85608805400353,8.486851095753734,1.0],"name":"Camera Node"},{"children":[0,1],"name":"Renderer Node"}],"scene":0,"scenes":[{"name":"Layer 0","nodes":[2]}]}