{"accessors":[{"bufferView":0,"byteOffset":0,"componentType":5126,"count":2647,"max":[7.779097557067871,7.775101184844971,9.526871681213379],"min":[-7.763114929199219,-7.775101184844971,-5.705252647399902],"type":"VEC3"},{"bufferView":1,"byteOffset":0,"componentType":5121,"count":5000,"normalized":true,"type":"VEC4"},{"bufferView":2,"byteOffset":0,"componentType":5125,"count":14262,"type":"SCALAR"}],"asset":{"generator":"VTK","version":"2.0"},"bufferViews":[{"buffer":0,"byteLength":31764,"byteOffset":0},{"buffer":1,"byteLength":20000,"byteOffset":0},{"buffer":2,"byteLength":57048,"byteOffset":0}],"buffers":[{"byteLength":31764,"uri":"data:application/octet-stream;base64,"},{"byteLength":20000,"uri":"data:application/octet-stream;base64,"},{"byteLength":57048,"uri":"data:application/octet-stream;base64,"}],"cameras":[{"perspective":{"aspectRatio":1.0,"yfov":0.5235987755982988,"zfar":78.27523317636098,"znear":23.760680541616498},"type":"perspective"}],"materials":[{"pbrMetallicRoughness":{"baseColorFactor":[0.0,0.0,0.0,1.0],"metallicFactor":0.0,"roughnessFactor":1.0}}],"meshes":[{"name":"mesh0","primitives":[{"attributes":{"COLOR_0":1,"POSITION":0},"indices":2,"material":0,"mode":4}]}],"nodes":[{"mesh":0,"name":"mesh0"},{"camera":0,"matrix":[0.22330774291721248,0.9742682988765359,0.030576686501985695,-0.0,-0.4576479330158036,0.07709576987297359,0.8857847434191082,0.0,0.8606346619556885,-0.2117959491395293,0.46308795554246845,-0.0,41.94557590968774,-10.320660536208463,22.565934839537494,1.0],"name":"Camera Node"},{"children":[0,1],"name":"Renderer Node"}],"scene":0,"scenes":[{"name":"Layer 0","nodes":[2]}]}