{"accessors":[{"bufferView":0,"byteOffset":0,"componentType":5126,"count":2647,"max":[7.284069061279297,7.280326843261719,7.287813663482666],"min":[-7.269103050231934,-7.280326843261719,-7.287813663482666],"type":"VEC3"},{"bufferView":1,"byteOffset":0,"componentType":5121,"count":5000,"normalized":true,"type":"VEC4"},{"bufferView":2,"byteOffset":0,"componentType":5125,"count":14262,"type":"SCALAR"}],"asset":{"generator":"VTK","version":"2.0"},"bufferViews":[{"buffer":0,"byteLength":31764,"byteOffset":0},{"buffer":1,"byteLength":20000,"byteOffset":0},{"buffer":2,"byteLength":57048,"byteOffset":0}],"buffers":[{"byteLength":31764,"uri":"data:application/octet-stream;base64,"},{"byteLength":20000,"uri":"data:application/octet-stream;base64,"},{"byteLength":57048,"uri":"data:application/octet-stream;base64,"}],"cameras":[{"perspective":{"aspectRatio":1.0,"yfov":0.5235987755982988,"zfar":70.70390925954715,"znear":31.365732064341323},"type":"perspective"}],"materials":[{"pbrMetallicRoughness":{"baseColorFactor":[0.0,0.0,0.0,1.0],"metallicFactor":0.0,"roughnessFactor":1.0}}],"meshes":[{"name":"mesh0","primitives":[{"attributes":{"COLOR_0":1,"POSITION":0},"indices":2,"material":0,"mode":4}]}],"nodes":[{"mesh":0,"name":"mesh0"},{"camera":0,"matrix":[0.011623208501364626,0.9999323279057848,0.0004905436285784916,-0.0,-0.16790796595622648,0.0014681499649322144,0.9858015822183098,0.0,0.9857341507691496,-0.011540543513985963,0.16791366788568854,-0.0,48.04158181793228,-0.562362181595476,8.182309306096073,1.0],"name":"Camera Node"},{"children":[0,1],"name":"Renderer Node"}],"scene":0,"scenes":[{"name":"Layer 0","nodes":[2]}]}